<?xml version="1.0" encoding="UTF-8"?>
<?xml-stylesheet href="https://cdnjs.cloudflare.com/ajax/libs/font-awesome/6.7.2/css/all.min.css" type="text/css"?>
<svg aria-roledescription="sequence" role="graphics-document document" viewBox="-50 -10 1287.5 2007" style="max-width: 100%;" xmlns="http://www.w3.org/2000/svg" width="100%" id="graph-50" height="100%" xmlns:xlink="http://www.w3.org/1999/xlink">
  <rect x="-50" y="-10" width="1287.5" height="2007" fill="white" />
  <g><rect class="actor actor-bottom" ry="3" rx="3" name="D" height="65" width="150" stroke="#666" fill="#eaeaea" y="1921" x="1037.5"></rect><text style="text-anchor: middle; font-size: 16px; font-weight: 400;" class="actor actor-box" alignment-baseline="central" dominant-baseline="central" y="1953.5" x="1112.5"><tspan dy="0" x="1112.5">Database</tspan></text></g><g><rect class="actor actor-bottom" ry="3" rx="3" name="AI" height="65" width="168" stroke="#666" fill="#eaeaea" y="1921" x="819.5"></rect><text style="text-anchor: middle; font-size: 16px; font-weight: 400;" class="actor actor-box" alignment-baseline="central" dominant-baseline="central" y="1953.5" x="903.5"><tspan dy="0" x="903.5">AI Model Integration</tspan></text></g><g><rect class="actor actor-bottom" ry="3" rx="3" name="A" height="65" width="153" stroke="#666" fill="#eaeaea" y="1921" x="616.5"></rect><text style="text-anchor: middle; font-size: 16px; font-weight: 400;" class="actor actor-box" alignment-baseline="central" dominant-baseline="central" y="1953.5" x="693"><tspan dy="0" x="693">Authentication API</tspan></text></g><g><rect class="actor actor-bottom" ry="3" rx="3" name="F" height="65" width="150" stroke="#666" fill="#eaeaea" y="1921" x="352"></rect><text style="text-anchor: middle; font-size: 16px; font-weight: 400;" class="actor actor-box" alignment-baseline="central" dominant-baseline="central" y="1953.5" x="427"><tspan dy="0" x="427">App Frontend</tspan></text></g><g><rect class="actor actor-bottom" ry="3" rx="3" name="U" height="65" width="150" stroke="#666" fill="#eaeaea" y="1921" x="0"></rect><text style="text-anchor: middle; font-size: 16px; font-weight: 400;" class="actor actor-box" alignment-baseline="central" dominant-baseline="central" y="1953.5" x="75"><tspan dy="0" x="75">User</tspan></text></g><g><line name="D" stroke="#999" stroke-width="0.5px" class="actor-line 200" y2="1921" x2="1112.5" y1="65" x1="1112.5" id="actor19"></line><g id="root-19"><rect class="actor actor-top" ry="3" rx="3" name="D" height="65" width="150" stroke="#666" fill="#eaeaea" y="0" x="1037.5"></rect><text style="text-anchor: middle; font-size: 16px; font-weight: 400;" class="actor actor-box" alignment-baseline="central" dominant-baseline="central" y="32.5" x="1112.5"><tspan dy="0" x="1112.5">Database</tspan></text></g></g><g><line name="AI" stroke="#999" stroke-width="0.5px" class="actor-line 200" y2="1921" x2="903.5" y1="65" x1="903.5" id="actor18"></line><g id="root-18"><rect class="actor actor-top" ry="3" rx="3" name="AI" height="65" width="168" stroke="#666" fill="#eaeaea" y="0" x="819.5"></rect><text style="text-anchor: middle; font-size: 16px; font-weight: 400;" class="actor actor-box" alignment-baseline="central" dominant-baseline="central" y="32.5" x="903.5"><tspan dy="0" x="903.5">AI Model Integration</tspan></text></g></g><g><line name="A" stroke="#999" stroke-width="0.5px" class="actor-line 200" y2="1921" x2="693" y1="65" x1="693" id="actor17"></line><g id="root-17"><rect class="actor actor-top" ry="3" rx="3" name="A" height="65" width="153" stroke="#666" fill="#eaeaea" y="0" x="616.5"></rect><text style="text-anchor: middle; font-size: 16px; font-weight: 400;" class="actor actor-box" alignment-baseline="central" dominant-baseline="central" y="32.5" x="693"><tspan dy="0" x="693">Authentication API</tspan></text></g></g><g><line name="F" stroke="#999" stroke-width="0.5px" class="actor-line 200" y2="1921" x2="427" y1="65" x1="427" id="actor16"></line><g id="root-16"><rect class="actor actor-top" ry="3" rx="3" name="F" height="65" width="150" stroke="#666" fill="#eaeaea" y="0" x="352"></rect><text style="text-anchor: middle; font-size: 16px; font-weight: 400;" class="actor actor-box" alignment-baseline="central" dominant-baseline="central" y="32.5" x="427"><tspan dy="0" x="427">App Frontend</tspan></text></g></g><g><line name="U" stroke="#999" stroke-width="0.5px" class="actor-line 200" y2="1921" x2="75" y1="65" x1="75" id="actor15"></line><g id="root-15"><rect class="actor actor-top" ry="3" rx="3" name="U" height="65" width="150" stroke="#666" fill="#eaeaea" y="0" x="0"></rect><text style="text-anchor: middle; font-size: 16px; font-weight: 400;" class="actor actor-box" alignment-baseline="central" dominant-baseline="central" y="32.5" x="75"><tspan dy="0" x="75">User</tspan></text></g></g><style>#graph-50{font-family:"trebuchet ms",verdana,arial,sans-serif;font-size:16px;fill:#333;}#graph-50 .error-icon{fill:#552222;}#graph-50 .error-text{fill:#552222;stroke:#552222;}#graph-50 .edge-thickness-normal{stroke-width:1px;}#graph-50 .edge-thickness-thick{stroke-width:3.5px;}#graph-50 .edge-pattern-solid{stroke-dasharray:0;}#graph-50 .edge-thickness-invisible{stroke-width:0;fill:none;}#graph-50 .edge-pattern-dashed{stroke-dasharray:3;}#graph-50 .edge-pattern-dotted{stroke-dasharray:2;}#graph-50 .marker{fill:#333333;stroke:#333333;}#graph-50 .marker.cross{stroke:#333333;}#graph-50 svg{font-family:"trebuchet ms",verdana,arial,sans-serif;font-size:16px;}#graph-50 p{margin:0;}#graph-50 .actor{stroke:hsl(259.6261682243, 59.7765363128%, 87.9019607843%);fill:#ECECFF;}#graph-50 text.actor>tspan{fill:black;stroke:none;}#graph-50 .actor-line{stroke:hsl(259.6261682243, 59.7765363128%, 87.9019607843%);}#graph-50 .messageLine0{stroke-width:1.5;stroke-dasharray:none;stroke:#333;}#graph-50 .messageLine1{stroke-width:1.5;stroke-dasharray:2,2;stroke:#333;}#graph-50 #arrowhead path{fill:#333;stroke:#333;}#graph-50 .sequenceNumber{fill:white;}#graph-50 #sequencenumber{fill:#333;}#graph-50 #crosshead path{fill:#333;stroke:#333;}#graph-50 .messageText{fill:#333;stroke:none;}#graph-50 .labelBox{stroke:hsl(259.6261682243, 59.7765363128%, 87.9019607843%);fill:#ECECFF;}#graph-50 .labelText,#graph-50 .labelText>tspan{fill:black;stroke:none;}#graph-50 .loopText,#graph-50 .loopText>tspan{fill:black;stroke:none;}#graph-50 .loopLine{stroke-width:2px;stroke-dasharray:2,2;stroke:hsl(259.6261682243, 59.7765363128%, 87.9019607843%);fill:hsl(259.6261682243, 59.7765363128%, 87.9019607843%);}#graph-50 .note{stroke:#aaaa33;fill:#fff5ad;}#graph-50 .noteText,#graph-50 .noteText>tspan{fill:black;stroke:none;}#graph-50 .activation0{fill:#f4f4f4;stroke:#666;}#graph-50 .activation1{fill:#f4f4f4;stroke:#666;}#graph-50 .activation2{fill:#f4f4f4;stroke:#666;}#graph-50 .actorPopupMenu{position:absolute;}#graph-50 .actorPopupMenuPanel{position:absolute;fill:#ECECFF;box-shadow:0px 8px 16px 0px rgba(0,0,0,0.2);filter:drop-shadow(3px 5px 2px rgb(0 0 0 / 0.4));}#graph-50 .actor-man line{stroke:hsl(259.6261682243, 59.7765363128%, 87.9019607843%);fill:#ECECFF;}#graph-50 .actor-man circle,#graph-50 line{stroke:hsl(259.6261682243, 59.7765363128%, 87.9019607843%);fill:#ECECFF;stroke-width:2px;}#graph-50 :root{--mermaid-font-family:"trebuchet ms",verdana,arial,sans-serif;}</style><g></g><defs><symbol height="24" width="24" id="computer"><path d="M2 2v13h20v-13h-20zm18 11h-16v-9h16v9zm-10.228 6l.466-1h3.524l.467 1h-4.457zm14.228 3h-24l2-6h2.104l-1.33 4h18.45l-1.297-4h2.073l2 6zm-5-10h-14v-7h14v7z" transform="scale(.5)"></path></symbol></defs><defs><symbol clip-rule="evenodd" fill-rule="evenodd" id="database"><path d="M12.258.001l.256.004.255.005.253.008.251.01.249.012.247.015.246.016.242.019.241.02.239.023.236.024.233.027.231.028.229.031.225.032.223.034.22.036.217.038.214.04.211.041.208.043.205.045.201.046.198.048.194.05.191.051.187.053.183.054.18.056.175.057.172.059.168.06.163.061.16.063.155.064.15.066.074.033.073.033.071.034.07.034.069.035.068.035.067.035.066.035.064.036.064.036.062.036.06.036.06.037.058.037.058.037.055.038.055.038.053.038.052.038.051.039.05.039.048.039.047.039.045.04.044.04.043.04.041.04.04.041.039.041.037.041.036.041.034.041.033.042.032.042.03.042.029.042.027.042.026.043.024.043.023.043.021.043.02.043.018.044.017.043.015.044.013.044.012.044.011.045.009.044.007.045.006.045.004.045.002.045.001.045v17l-.001.045-.002.045-.004.045-.006.045-.007.045-.009.044-.011.045-.012.044-.013.044-.015.044-.017.043-.018.044-.02.043-.021.043-.023.043-.024.043-.026.043-.027.042-.029.042-.03.042-.032.042-.033.042-.034.041-.036.041-.037.041-.039.041-.04.041-.041.04-.043.04-.044.04-.045.04-.047.039-.048.039-.05.039-.051.039-.052.038-.053.038-.055.038-.055.038-.058.037-.058.037-.06.037-.06.036-.062.036-.064.036-.064.036-.066.035-.067.035-.068.035-.069.035-.07.034-.071.034-.073.033-.074.033-.15.066-.155.064-.16.063-.163.061-.168.06-.172.059-.175.057-.18.056-.183.054-.187.053-.191.051-.194.05-.198.048-.201.046-.205.045-.208.043-.211.041-.214.04-.217.038-.22.036-.223.034-.225.032-.229.031-.231.028-.233.027-.236.024-.239.023-.241.02-.242.019-.246.016-.247.015-.249.012-.251.10-.253.008-.255.005-.256.004-.258.001-.258-.001-.256-.004-.255-.005-.253-.008-.251-.01-.249-.012-.247-.015-.245-.016-.243-.019-.241-.02-.238-.023-.236-.024-.234-.027-.231-.028-.228-.031-.226-.032-.223-.034-.22-.036-.217-.038-.214-.04-.211-.041-.208-.043-.204-.045-.201-.046-.198-.048-.195-.05-.19-.051-.187-.053-.184-.054-.179-.056-.176-.057-.172-.059-.167-.06-.164-.061-.159-.063-.155-.064-.151-.066-.074-.033-.072-.033-.072-.034-.07-.034-.069-.035-.068-.035-.067-.035-.066-.035-.064-.036-.063-.036-.062-.036-.061-.036-.06-.037-.058-.037-.057-.037-.056-.038-.055-.038-.053-.038-.052-.038-.051-.039-.049-.039-.049-.039-.046-.039-.046-.04-.044-.04-.043-.04-.041-.04-.04-.041-.039-.041-.037-.041-.036-.041-.034-.041-.033-.042-.032-.042-.03-.042-.029-.042-.027-.042-.026-.043-.024-.043-.023-.043-.021-.043-.02-.043-.018-.044-.017-.043-.015-.044-.013-.044-.012-.044-.011-.045-.009-.044-.007-.045-.006-.045-.004-.045-.002-.045-.001-.045v-17l.001-.045.002-.045.004-.045.006-.045.007-.045.009-.044.011-.045.012-.044.013-.044.015-.044.017-.043.018-.044.02-.043.021-.043.023-.043.024-.043.026-.043.027-.042.029-.042.03-.042.032-.042.033-.042.034-.041.036-.041.037-.041.039-.041.04-.041.041-.04.043-.04.044-.04.046-.04.046-.039.049-.039.049-.039.051-.039.052-.038.053-.038.055-.038.056-.038.057-.037.058-.037.06-.037.061-.036.062-.036.063-.036.064-.036.066-.035.067-.035.068-.035.069-.035.07-.034.072-.034.072-.033.074-.033.151-.066.155-.064.159-.063.164-.061.167-.06.172-.059.176-.057.179-.056.184-.054.187-.053.19-.051.195-.05.198-.048.201-.046.204-.045.208-.043.211-.041.214-.04.217-.038.22-.036.223-.034.226-.032.228-.031.231-.028.234-.027.236-.024.238-.023.241-.02.243-.019.245-.016.247-.015.249-.012.251-.01.253-.008.255-.005.256-.004.258-.001.258.001zm-9.258 20.499v.01l.001.021.003.021.004.022.005.021.006.022.007.022.009.023.01.022.011.023.012.023.013.023.015.023.016.024.017.023.018.024.019.024.021.024.022.025.023.024.024.025.052.049.056.05.061.051.066.051.07.051.075.051.079.052.084.052.088.052.092.052.097.052.102.051.105.052.11.052.114.051.119.051.123.051.127.05.131.05.135.05.139.048.144.049.147.047.152.047.155.047.16.045.163.045.167.043.171.043.176.041.178.041.183.039.187.039.19.037.194.035.197.035.202.033.204.031.209.03.212.029.216.027.219.025.222.024.226.021.23.02.233.018.236.016.24.015.243.012.246.01.249.008.253.005.256.004.259.001.26-.001.257-.004.254-.005.25-.008.247-.011.244-.012.241-.014.237-.016.233-.018.231-.021.226-.021.224-.024.22-.026.216-.027.212-.028.21-.031.205-.031.202-.034.198-.034.194-.036.191-.037.187-.039.183-.04.179-.04.175-.042.172-.043.168-.044.163-.045.16-.046.155-.046.152-.047.148-.048.143-.049.139-.049.136-.05.131-.05.126-.05.123-.051.118-.052.114-.051.11-.052.106-.052.101-.052.096-.052.092-.052.088-.053.083-.051.079-.052.074-.052.07-.051.065-.051.06-.051.056-.05.051-.05.023-.024.023-.025.021-.024.02-.024.019-.024.018-.024.017-.024.015-.023.014-.024.013-.023.012-.023.01-.023.01-.022.008-.022.006-.022.006-.022.004-.022.004-.021.001-.021.001-.021v-4.127l-.077.055-.08.053-.083.054-.085.053-.087.052-.09.052-.093.051-.095.05-.097.05-.1.049-.102.049-.105.048-.106.047-.109.047-.111.046-.114.045-.115.045-.118.044-.12.043-.122.042-.124.042-.126.041-.128.04-.13.04-.132.038-.134.038-.135.037-.138.037-.139.035-.142.035-.143.034-.144.033-.147.032-.148.031-.15.03-.151.03-.153.029-.154.027-.156.027-.158.026-.159.025-.161.024-.162.023-.163.022-.165.021-.166.02-.167.019-.169.018-.169.017-.171.016-.173.015-.173.014-.175.013-.175.012-.177.011-.178.01-.179.008-.179.008-.181.006-.182.005-.182.004-.184.003-.184.002h-.37l-.184-.002-.184-.003-.182-.004-.182-.005-.181-.007-.179-.007-.179-.009-.178-.009-.176-.011-.176-.012-.175-.013-.173-.014-.172-.015-.171-.016-.17-.017-.169-.018-.167-.019-.166-.02-.165-.021-.163-.022-.162-.023-.161-.024-.159-.025-.157-.026-.156-.027-.155-.028-.153-.028-.151-.03-.15-.03-.148-.032-.146-.032-.145-.033-.143-.034-.141-.034-.14-.036-.137-.036-.136-.037-.134-.038-.132-.039-.13-.039-.128-.041-.126-.041-.124-.042-.122-.043-.12-.043-.117-.044-.116-.044-.113-.046-.112-.046-.109-.046-.106-.048-.105-.048-.102-.048-.1-.05-.097-.049-.095-.051-.093-.051-.09-.052-.087-.052-.085-.053-.083-.053-.08-.054-.077-.054v4.127zm0-5.654v.011l.001.021.003.021.004.021.005.022.006.022.007.022.009.022.01.022.011.023.012.023.013.023.015.024.016.023.017.024.018.024.019.024.021.024.022.024.023.025.024.024.052.05.056.05.061.05.066.051.07.051.075.052.079.051.084.052.088.052.092.052.097.052.102.052.105.051.11.052.114.051.119.052.123.05.127.051.131.05.135.049.139.049.144.048.147.048.152.047.155.046.16.045.163.045.167.044.171.042.176.042.178.04.183.04.187.038.19.037.194.036.197.034.202.033.204.032.209.03.212.028.216.027.219.025.222.024.226.022.23.02.233.018.236.016.24.014.243.012.246.01.249.008.253.006.256.003.259.001.26-.001.257-.003.254-.006.25-.008.247-.01.244-.012.241-.015.237-.016.233-.018.231-.02.226-.022.224-.024.22-.025.216-.027.212-.029.21-.03.205-.032.202-.033.198-.035.194-.036.191-.037.187-.039.183-.039.179-.041.175-.042.172-.043.168-.044.163-.045.16-.045.155-.047.152-.047.148-.048.143-.049.139-.05.136-.049.131-.05.126-.051.123-.051.118-.051.114-.052.11-.052.106-.052.101-.052.096-.052.092-.052.088-.052.083-.052.079-.052.074-.051.07-.052.065-.051.06-.05.056-.051.051-.049.023-.025.023-.024.021-.025.02-.024.019-.024.018-.024.017-.024.015-.023.014-.023.013-.024.012-.022.01-.023.01-.023.008-.022.006-.022.006-.022.004-.021.004-.022.001-.021.001-.021v-4.139l-.077.054-.08.054-.083.054-.085.052-.087.053-.09.051-.093.051-.095.051-.097.05-.1.049-.102.049-.105.048-.106.047-.109.047-.111.046-.114.045-.115.044-.118.044-.12.044-.122.042-.124.042-.126.041-.128.04-.13.039-.132.039-.134.038-.135.037-.138.036-.139.036-.142.035-.143.033-.144.033-.147.033-.148.031-.15.03-.151.30-.153.028-.154.028-.156.027-.158.026-.159.025-.161.024-.162.023-.163.022-.165.021-.166.02-.167.019-.169.018-.169.017-.171.016-.173.015-.173.014-.175.013-.175.012-.177.011-.178.009-.179.009-.179.007-.181.007-.182.005-.182.004-.184.003-.184.002h-.37l-.184-.002-.184-.003-.182-.004-.182-.005-.181-.007-.179-.007-.179-.009-.178-.009-.176-.011-.176-.012-.175-.013-.173-.014-.172-.015-.171-.016-.17-.017-.169-.018-.167-.019-.166-.20-.165-.021-.163-.022-.162-.023-.161-.024-.159-.025-.157-.026-.156-.027-.155-.028-.153-.028-.151-.03-.15-.03-.148-.031-.146-.033-.145-.033-.143-.033-.141-.035-.14-.036-.137-.036-.136-.037-.134-.038-.132-.039-.13-.039-.128-.04-.126-.041-.124-.042-.122-.043-.12-.043-.117-.044-.116-.044-.113-.046-.112-.046-.109-.046-.106-.047-.105-.048-.102-.049-.1-.049-.097-.05-.095-.051-.093-.051-.90-.051-.087-.053-.085-.052-.083-.054-.80-.054-.077-.054v4.139zm0-5.666v.011l.001.02l.003.022l.004.021l.005.022l.006.021l.007.022l.009.023l.01.022l.011.023l.012.023l.013.023l.015.023l.016.024l.017.024l.018.023l.019.024l.021.025l.022.024l.023.024l.024.025l.052.05l.056.05l.061.05l.066.051l.07.051l.075.052l.079.051l.084.052l.088.052l.092.052l.097.052l.102.052l.105.051l.11.052l.114.051l.119.051l.123.051l.127.05l.131.05l.135.05l.139.049l.144.048l.147.048l.152.047l.155.046l.16.045l.163.045l.167.043l.171.043l.176.042l.178.04l.183.04l.187.038l.19.037l.194.036l.197.034l.202.033l.204.032l.209.03l.212.028l.216.027l.219.025l.222.024l.226.021l.23.02l.233.018l.236.017l.24.014l.243.012l.246.01l.249.008l.253.006l.256.003l.259.001l.26-.001l.257-.003l.254-.006l.25-.008l.247-.01l.244-.013l.241-.014l.237-.016l.233-.018l.231-.02l.226-.022l.224-.024l.22-.025l.216-.027l.212-.029l.21-.03l.205-.032l.202-.033l.198-.035l.194-.036l.191-.037l.187-.039l.183-.039l.179-.041l.175-.042l.172-.043l.168-.044l.163-.045l.16-.045l.155-.047l.152-.047l.148-.048l.143-.049l.139-.049l.136-.049l.131-.051l.126-.05l.123-.051l.118-.052l.114-.051l.11-.052l.106-.052l.101-.052l.096-.052l.092-.052l.088-.052l.083-.052l.079-.052l.074-.052l.07-.051l.065-.051l.06-.051l.056-.05l.051-.049l.023-.025l.023-.025l.021-.024l.02-.024l.019-.024l.018-.024l.017-.024l.015-.023l.014-.024l.013-.023l.012-.023l.01-.022l.01-.023l.008-.022l.006-.022l.006-.022l.004-.022l.004-.021l.001-.021l.001-.021v-4.153l-.077.054l-.08.054l-.083.053l-.085.053l-.087.053l-.09.051l-.093.051l-.095.051l-.097.05l-.1.049l-.102.048l-.105.048l-.106.048l-.109.046l-.111.046l-.114.046l-.115.044l-.118.044l-.12.043l-.122.043l-.124.042l-.126.041l-.128.04l-.13.039l-.132.039l-.134.038l-.135.037l-.138.036l-.139.036l-.142.034l-.143.034l-.144.033l-.147.032l-.148.032l-.15.03l-.151.03l-.153.028l-.154.028l-.156.027l-.158.026l-.159.024l-.161.024l-.162.023l-.163.023l-.165.021l-.166.02l-.167.019l-.169.018l-.169.017l-.171.016l-.173.015l-.173.014l-.175.013l-.175.012l-.177.01l-.178.01l-.179.009l-.179.007l-.181.006l-.182.006l-.182.004l-.184.003l-.184.001l-.185.001l-.185-.001l-.184-.001l-.184-.003l-.182-.004l-.182-.006l-.181-.006l-.179-.007l-.179-.009l-.178-.01l-.176-.01l-.176-.012l-.175-.013l-.173-.014l-.172-.015l-.171-.016l-.17-.017l-.169-.018l-.167-.019l-.166-.02l-.165-.021l-.163-.023l-.162-.023l-.161-.024l-.159-.024l-.157-.026l-.156-.027l-.155-.028l-.153-.028l-.151-.03l-.15-.03l-.148-.032l-.146-.032l-.145-.033l-.143-.034l-.141-.034l-.14-.036l-.137-.036l-.136-.037l-.134-.038l-.132-.039l-.13-.039l-.128-.041l-.126-.041l-.124-.041l-.122-.043l-.12-.043l-.117-.044l-.116-.044l-.113-.046l-.112-.046l-.109-.046l-.106-.048l-.105-.048l-.102-.048l-.1-.05l-.097-.049l-.095-.051l-.093-.051l-.09-.052l-.087-.052l-.085-.053l-.083-.053l-.08-.054l-.077-.054v4.153zm8.74-8.179l-.257.004l-.254.005l-.25.008l-.247.011l-.244.012l-.241.014l-.237.016l-.233.018l-.231.021l-.226.022l-.224.023l-.22.026l-.216.027l-.212.028l-.21.031l-.205.032l-.202.033l-.198.034l-.194.036l-.191.038l-.187.038l-.183.04l-.179.041l-.175.042l-.172.043l-.168.043l-.163.045l-.16.046l-.155.046l-.152.048l-.148.048l-.143.048l-.139.049l-.136.05l-.131.05l-.126.051l-.123.051l-.118.051l-.114.052l-.11.052l-.106.052l-.101.052l-.096.052l-.092.052l-.088.052l-.083.052l-.079.052l-.074.051l-.07.052l-.065.051l-.06.05l-.056.05l-.051.05l-.023.025l-.023.024l-.021.024l-.02.025l-.019.024l-.018.024l-.017.023l-.015.024l-.014.023l-.013.023l-.012.023l-.01.023l-.01.022l-.008.022l-.006.023l-.006.021l-.004.022l-.004.021l-.001.021l-.001.021l.001.021l.001.021l.004.021l.004.022l.006.021l.006.023l.008.022l.01.022l.01.023l.012.023l.013.023l.014.023l.015.024l.017.023l.018.024l.019.024l.02.025l.021.024l.023.024l.023.025l.051.05l.056.05l.06.05l.065.051l.07.052l.074.051l.079.052l.083.052l.088.052l.092.052l.096.052l.101.052l.106.052l.11.052l.114.052l.118.051l.123.051l.126.051l.131.05l.136.05l.139.049l.143.048l.148.048l.152.048l.155.046l.16.046l.163.045l.168.043l.172.043l.175.042l.179.041l.183.04l.187.038l.191.038l.194.036l.198.034l.202.033l.205.032l.21.031l.212.028l.216.027l.22.026l.224.023l.226.022l.231.021l.233.018l.237.016l.241.014l.244.012l.247.011l.25.008l.254.005l.257.004l.26.001l.26-.001l.257-.004l.254-.005l.25-.008l.247-.011l.244-.012l.241-.014l.237-.016l.233-.018l.231-.021l.226-.022l.224-.023l.22-.026l.216-.027l.212-.028l.21-.031l.205-.032l.202-.033l.198-.034l.194-.036l.191-.038l.187-.038l.183-.04l.179-.041l.175-.042l.172-.043l.168-.043l.163-.045l.16-.046l.155-.046l.152-.048l.148-.048l.143-.048l.139-.049l.136-.05l.131-.05l.126-.051l.123-.051l.118-.051l.114-.052l.11-.052l.106-.052l.101-.052l.096-.052l.092-.052l.088-.052l.083-.052l.079-.052l.074-.051l.07-.052l.065-.051l.06-.05l.056-.05l.051-.05l.023-.025l.023-.024l.021-.024l.02-.025l.019-.024l.018-.024l.017-.023l.015-.024l.014-.023l.013-.023l.012-.023l.01-.023l.01-.022l.008-.022l.006-.023l.006-.021l.004-.022l.004-.021l.001-.021l.001-.021l-.001-.021l-.001-.021l-.004-.021l-.004-.022l-.006-.021l-.006-.023l-.008-.022l-.01-.022l-.01-.023l-.012-.023l-.013-.023l-.014-.023l-.015-.024l-.017-.023l-.018-.024l-.019-.024l-.02-.025l-.021-.024l-.023-.024l-.023-.025l-.051-.05l-.056-.05l-.06-.05l-.065-.051l-.07-.052l-.074-.051l-.079-.052l-.083-.052l-.088-.052l-.092-.052l-.096-.052l-.101-.052l-.106-.052l-.11-.052l-.114-.052l-.118-.051l-.123-.051l-.126-.051l-.131-.05l-.136-.05l-.139-.049l-.143-.048l-.148-.048l-.152-.048l-.155-.046l-.16-.046l-.163-.045l-.168-.043l-.172-.043l-.175-.042l-.179-.041l-.183-.04l-.187-.038l-.191-.038l-.194-.036l-.198-.034l-.202-.033l-.205-.032l-.21-.031l-.212-.028l-.216-.027l-.22-.026l-.224-.023l-.226-.022l-.231-.021l-.233-.018l-.237-.016l-.241-.014l-.244-.012l-.247-.011l-.25-.008l-.254-.005l-.257-.004l-.26-.001l-.26.001z" transform="scale(.5)"></path></symbol></defs><defs><symbol height="24" width="24" id="clock"><path d="M12 2c5.514 0 10 4.486 10 10s-4.486 10-10 10-10-4.486-10-10 4.486-10 10-10zm0-2c-6.627 0-12 5.373-12 12s5.373 12 12 12 12-5.373 12-12-5.373-12-12-12zm5.848 12.459c.202.038.202.333.001.372-1.907.361-6.045 1.111-6.547 1.111-.719 0-1.301-.582-1.301-1.301 0-.512.77-5.447 1.125-7.445.034-.192.312-.181.343.014l.985 6.238 5.394 1.011z" transform="scale(.5)"></path></symbol></defs><defs><marker orient="auto-start-reverse" markerHeight="12" markerWidth="12" markerUnits="userSpaceOnUse" refY="5" refX="7.9" id="arrowhead"><path d="M -1 0 L 10 5 L 0 10 z"></path></marker></defs><defs><marker refY="4.5" refX="4" orient="auto" markerHeight="8" markerWidth="15" id="crosshead"><path style="stroke-dasharray: 0, 0;" d="M 1,2 L 6,7 M 6,2 L 1,7" stroke-width="1pt" stroke="#000000" fill="none"></path></marker></defs><defs><marker orient="auto" markerHeight="28" markerWidth="20" refY="7" refX="15.5" id="filled-head"><path d="M 18,7 L9,13 L14,7 L9,1 Z"></path></marker></defs><defs><marker orient="auto" markerHeight="40" markerWidth="60" refY="15" refX="15" id="sequencenumber"><circle r="6" cy="15" cx="15"></circle></marker></defs><text style="font-size: 16px; font-weight: 400;" dy="1em" class="messageText" alignment-baseline="middle" dominant-baseline="middle" text-anchor="middle" y="80" x="250">Provide email and password</text><line style="fill: none;" marker-end="url(#arrowhead)" stroke="none" stroke-width="2" class="messageLine0" y2="119" x2="423" y1="119" x1="76"></line><text style="font-size: 16px; font-weight: 400;" dy="1em" class="messageText" alignment-baseline="middle" dominant-baseline="middle" text-anchor="middle" y="134" x="559">Send credentials</text><line style="fill: none;" marker-end="url(#arrowhead)" stroke="none" stroke-width="2" class="messageLine0" y2="173" x2="689" y1="173" x1="428"></line><text style="font-size: 16px; font-weight: 400;" dy="1em" class="messageText" alignment-baseline="middle" dominant-baseline="middle" text-anchor="middle" y="188" x="562">Return authentication result</text><line style="stroke-dasharray: 3, 3; fill: none;" marker-end="url(#arrowhead)" stroke="none" stroke-width="2" class="messageLine1" y2="227" x2="431" y1="227" x1="692"></line><text style="font-size: 16px; font-weight: 400;" dy="1em" class="messageText" alignment-baseline="middle" dominant-baseline="middle" text-anchor="middle" y="242" x="253">Display dashboard</text><line style="stroke-dasharray: 3, 3; fill: none;" marker-end="url(#arrowhead)" stroke="none" stroke-width="2" class="messageLine1" y2="281" x2="79" y1="281" x1="426"></line><text style="font-size: 16px; font-weight: 400;" dy="1em" class="messageText" alignment-baseline="middle" dominant-baseline="middle" text-anchor="middle" y="296" x="250">Navigate to "Add New Target"</text><line style="fill: none;" marker-end="url(#arrowhead)" stroke="none" stroke-width="2" class="messageLine0" y2="335" x2="423" y1="335" x1="76"></line><text style="font-size: 16px; font-weight: 400;" dy="1em" class="messageText" alignment-baseline="middle" dominant-baseline="middle" text-anchor="middle" y="350" x="250">Input target name, details, achieve days</text><line style="fill: none;" marker-end="url(#arrowhead)" stroke="none" stroke-width="2" class="messageLine0" y2="389" x2="423" y1="389" x1="76"></line><text style="font-size: 16px; font-weight: 400;" dy="1em" class="messageText" alignment-baseline="middle" dominant-baseline="middle" text-anchor="middle" y="404" x="664">Send input to generate plan</text><line style="fill: none;" marker-end="url(#arrowhead)" stroke="none" stroke-width="2" class="messageLine0" y2="443" x2="899.5" y1="443" x1="428"></line><text style="font-size: 16px; font-weight: 400;" dy="1em" class="messageText" alignment-baseline="middle" dominant-baseline="middle" text-anchor="middle" y="458" x="667">Return generated plan</text><line style="stroke-dasharray: 3, 3; fill: none;" marker-end="url(#arrowhead)" stroke="none" stroke-width="2" class="messageLine1" y2="497" x2="431" y1="497" x1="902.5"></line><text style="font-size: 16px; font-weight: 400;" dy="1em" class="messageText" alignment-baseline="middle" dominant-baseline="middle" text-anchor="middle" y="512" x="768">Store target and plan</text><line style="fill: none;" marker-end="url(#arrowhead)" stroke="none" stroke-width="2" class="messageLine0" y2="551" x2="1108.5" y1="551" x1="428"></line><text style="font-size: 16px; font-weight: 400;" dy="1em" class="messageText" alignment-baseline="middle" dominant-baseline="middle" text-anchor="middle" y="566" x="771">Confirm storage</text><line style="stroke-dasharray: 3, 3; fill: none;" marker-end="url(#arrowhead)" stroke="none" stroke-width="2" class="messageLine1" y2="605" x2="431" y1="605" x1="1111.5"></line><text style="font-size: 16px; font-weight: 400;" dy="1em" class="messageText" alignment-baseline="middle" dominant-baseline="middle" text-anchor="middle" y="620" x="253">Display success</text><line style="stroke-dasharray: 3, 3; fill: none;" marker-end="url(#arrowhead)" stroke="none" stroke-width="2" class="messageLine1" y2="659" x2="79" y1="659" x1="426"></line><text style="font-size: 16px; font-weight: 400;" dy="1em" class="messageText" alignment-baseline="middle" dominant-baseline="middle" text-anchor="middle" y="674" x="250">Open dashboard</text><line style="fill: none;" marker-end="url(#arrowhead)" stroke="none" stroke-width="2" class="messageLine0" y2="713" x2="423" y1="713" x1="76"></line><text style="font-size: 16px; font-weight: 400;" dy="1em" class="messageText" alignment-baseline="middle" dominant-baseline="middle" text-anchor="middle" y="728" x="768">Request user's targets</text><line style="fill: none;" marker-end="url(#arrowhead)" stroke="none" stroke-width="2" class="messageLine0" y2="767" x2="1108.5" y1="767" x1="428"></line><text style="font-size: 16px; font-weight: 400;" dy="1em" class="messageText" alignment-baseline="middle" dominant-baseline="middle" text-anchor="middle" y="782" x="771">Return targets</text><line style="stroke-dasharray: 3, 3; fill: none;" marker-end="url(#arrowhead)" stroke="none" stroke-width="2" class="messageLine1" y2="821" x2="431" y1="821" x1="1111.5"></line><text style="font-size: 16px; font-weight: 400;" dy="1em" class="messageText" alignment-baseline="middle" dominant-baseline="middle" text-anchor="middle" y="836" x="253">Display targets</text><line style="stroke-dasharray: 3, 3; fill: none;" marker-end="url(#arrowhead)" stroke="none" stroke-width="2" class="messageLine1" y2="875" x2="79" y1="875" x1="426"></line><text style="font-size: 16px; font-weight: 400;" dy="1em" class="messageText" alignment-baseline="middle" dominant-baseline="middle" text-anchor="middle" y="890" x="250">Select target to view details</text><line style="fill: none;" marker-end="url(#arrowhead)" stroke="none" stroke-width="2" class="messageLine0" y2="929" x2="423" y1="929" x1="76"></line><text style="font-size: 16px; font-weight: 400;" dy="1em" class="messageText" alignment-baseline="middle" dominant-baseline="middle" text-anchor="middle" y="944" x="768">Request detailed plan</text><line style="fill: none;" marker-end="url(#arrowhead)" stroke="none" stroke-width="2" class="messageLine0" y2="983" x2="1108.5" y1="983" x1="428"></line><text style="font-size: 16px; font-weight: 400;" dy="1em" class="messageText" alignment-baseline="middle" dominant-baseline="middle" text-anchor="middle" y="998" x="771">Return plan</text><line style="stroke-dasharray: 3, 3; fill: none;" marker-end="url(#arrowhead)" stroke="none" stroke-width="2" class="messageLine1" y2="1037" x2="431" y1="1037" x1="1111.5"></line><text style="font-size: 16px; font-weight: 400;" dy="1em" class="messageText" alignment-baseline="middle" dominant-baseline="middle" text-anchor="middle" y="1052" x="253">Display detailed plan</text><line style="stroke-dasharray: 3, 3; fill: none;" marker-end="url(#arrowhead)" stroke="none" stroke-width="2" class="messageLine1" y2="1091" x2="79" y1="1091" x1="426"></line><text style="font-size: 16px; font-weight: 400;" dy="1em" class="messageText" alignment-baseline="middle" dominant-baseline="middle" text-anchor="middle" y="1106" x="250">Request to edit prompt</text><line style="fill: none;" marker-end="url(#arrowhead)" stroke="none" stroke-width="2" class="messageLine0" y2="1145" x2="423" y1="1145" x1="76"></line><text style="font-size: 16px; font-weight: 400;" dy="1em" class="messageText" alignment-baseline="middle" dominant-baseline="middle" text-anchor="middle" y="1160" x="253">Display edit prompt form</text><line style="stroke-dasharray: 3, 3; fill: none;" marker-end="url(#arrowhead)" stroke="none" stroke-width="2" class="messageLine1" y2="1199" x2="79" y1="1199" x1="426"></line><text style="font-size: 16px; font-weight: 400;" dy="1em" class="messageText" alignment-baseline="middle" dominant-baseline="middle" text-anchor="middle" y="1214" x="250">Submit updated prompt</text><line style="fill: none;" marker-end="url(#arrowhead)" stroke="none" stroke-width="2" class="messageLine0" y2="1253" x2="423" y1="1253" x1="76"></line><text style="font-size: 16px; font-weight: 400;" dy="1em" class="messageText" alignment-baseline="middle" dominant-baseline="middle" text-anchor="middle" y="1268" x="768">Update target prompt</text><line style="fill: none;" marker-end="url(#arrowhead)" stroke="none" stroke-width="2" class="messageLine0" y2="1307" x2="1108.5" y1="1307" x1="428"></line><text style="font-size: 16px; font-weight: 400;" dy="1em" class="messageText" alignment-baseline="middle" dominant-baseline="middle" text-anchor="middle" y="1322" x="771">Confirm update</text><line style="stroke-dasharray: 3, 3; fill: none;" marker-end="url(#arrowhead)" stroke="none" stroke-width="2" class="messageLine1" y2="1361" x2="431" y1="1361" x1="1111.5"></line><text style="font-size: 16px; font-weight: 400;" dy="1em" class="messageText" alignment-baseline="middle" dominant-baseline="middle" text-anchor="middle" y="1376" x="250">Request to regenerate plan</text><line style="fill: none;" marker-end="url(#arrowhead)" stroke="none" stroke-width="2" class="messageLine0" y2="1415" x2="423" y1="1415" x1="76"></line><text style="font-size: 16px; font-weight: 400;" dy="1em" class="messageText" alignment-baseline="middle" dominant-baseline="middle" text-anchor="middle" y="1430" x="664">Send updated prompt to regenerate plan</text><line style="fill: none;" marker-end="url(#arrowhead)" stroke="none" stroke-width="2" class="messageLine0" y2="1469" x2="899.5" y1="1469" x1="428"></line><text style="font-size: 16px; font-weight: 400;" dy="1em" class="messageText" alignment-baseline="middle" dominant-baseline="middle" text-anchor="middle" y="1484" x="667">Return new plan</text><line style="stroke-dasharray: 3, 3; fill: none;" marker-end="url(#arrowhead)" stroke="none" stroke-width="2" class="messageLine1" y2="1523" x2="431" y1="1523" x1="902.5"></line><text style="font-size: 16px; font-weight: 400;" dy="1em" class="messageText" alignment-baseline="middle" dominant-baseline="middle" text-anchor="middle" y="1538" x="768">Update plan</text><line style="fill: none;" marker-end="url(#arrowhead)" stroke="none" stroke-width="2" class="messageLine0" y2="1577" x2="1108.5" y1="1577" x1="428"></line><text style="font-size: 16px; font-weight: 400;" dy="1em" class="messageText" alignment-baseline="middle" dominant-baseline="middle" text-anchor="middle" y="1592" x="771">Confirm update</text><line style="stroke-dasharray: 3, 3; fill: none;" marker-end="url(#arrowhead)" stroke="none" stroke-width="2" class="messageLine1" y2="1631" x2="431" y1="1631" x1="1111.5"></line><text style="font-size: 16px; font-weight: 400;" dy="1em" class="messageText" alignment-baseline="middle" dominant-baseline="middle" text-anchor="middle" y="1646" x="253">Display updated plan</text><line style="stroke-dasharray: 3, 3; fill: none;" marker-end="url(#arrowhead)" stroke="none" stroke-width="2" class="messageLine1" y2="1685" x2="79" y1="1685" x1="426"></line><text style="font-size: 16px; font-weight: 400;" dy="1em" class="messageText" alignment-baseline="middle" dominant-baseline="middle" text-anchor="middle" y="1700" x="250">Select target to delete from dashboard</text><line style="fill: none;" marker-end="url(#arrowhead)" stroke="none" stroke-width="2" class="messageLine0" y2="1739" x2="423" y1="1739" x1="76"></line><text style="font-size: 16px; font-weight: 400;" dy="1em" class="messageText" alignment-baseline="middle" dominant-baseline="middle" text-anchor="middle" y="1754" x="768">Send delete request for the target</text><line style="fill: none;" marker-end="url(#arrowhead)" stroke="none" stroke-width="2" class="messageLine0" y2="1793" x2="1108.5" y1="1793" x1="428"></line><text style="font-size: 16px; font-weight: 400;" dy="1em" class="messageText" alignment-baseline="middle" dominant-baseline="middle" text-anchor="middle" y="1808" x="771">Confirm deletion</text><line style="stroke-dasharray: 3, 3; fill: none;" marker-end="url(#arrowhead)" stroke="none" stroke-width="2" class="messageLine1" y2="1847" x2="431" y1="1847" x1="1111.5"></line><text style="font-size: 16px; font-weight: 400;" dy="1em" class="messageText" alignment-baseline="middle" dominant-baseline="middle" text-anchor="middle" y="1862" x="253">Update dashboard to remove the target</text><line style="stroke-dasharray: 3, 3; fill: none;" marker-end="url(#arrowhead)" stroke="none" stroke-width="2" class="messageLine1" y2="1901" x2="79" y1="1901" x1="426"></line></svg>